<svg width="500" height="387" viewBox="0 0 500 387" fill="none" xmlns="http://www.w3.org/2000/svg">
<path d="M247.156 244.857C245.156 246.456 237.957 220.457 239.556 214.458C242.756 201.656 254.756 194.857 267.555 196.056C294.355 198.857 307.156 247.256 294.355 267.256C277.555 293.255 239.955 286.455 219.955 268.456C202.354 252.457 194.355 227.655 199.154 204.454C207.556 163.254 244.355 132.854 263.554 96.4544C280.753 64.0551 287.954 13.2544 243.155 0.454411C237.555 -1.14437 232.354 1.6542 229.154 6.05427C213.953 27.6528 215.152 52.8543 219.553 77.6543C225.954 112.855 235.551 148.054 243.953 182.454C252.354 217.254 261.151 251.654 270.753 286.054C275.954 304.054 281.953 324.854 273.554 343.253C265.555 361.252 232.754 371.252 231.155 343.253C230.756 333.253 214.754 329.654 212.754 340.853C207.954 368.052 235.954 388.853 261.953 380.454C295.552 369.653 301.152 328.855 296.353 298.854C288.354 251.253 273.153 204.454 262.351 157.654C256.353 132.855 250.753 108.053 245.551 82.854C241.157 61.2554 237.156 38.0547 251.157 18.8554C246.358 20.856 241.556 22.8566 237.155 24.4553C291.157 40.4538 193.556 149.255 182.356 173.255C161.555 218.055 171.957 271.255 214.755 298.855C256.354 326.054 325.155 309.255 327.155 252.455C328.754 206.855 287.555 144.855 237.155 178.055C217.555 190.856 210.755 217.254 218.754 238.855C223.553 251.657 246.753 276.054 257.554 255.256C260.754 249.254 253.955 240.055 247.155 244.855L247.156 244.857Z" fill="#2A1E1C"/>
</svg>
