<svg width="28" height="27" viewBox="0 0 28 27" fill="none" xmlns="http://www.w3.org/2000/svg">
<g clip-path="url(#clip0_142_21)">
<path d="M25.4071 0.976412L13.8796 13.3214L10.6152 8.82141C10.2996 8.38698 9.77456 8.15284 9.23815 8.20743C8.70175 8.26204 8.23543 8.59728 8.01488 9.08654C7.79413 9.57579 7.85284 10.145 8.16871 10.5794L12.4978 16.5612C12.7628 16.9255 13.1779 17.1521 13.6291 17.1794H13.7226C14.1418 17.1787 14.5418 17.0048 14.8267 16.6993L27.6181 3.01342C27.9733 2.61895 28.0931 2.06735 27.9331 1.56217C27.773 1.057 27.357 0.673203 26.8385 0.552238C26.3199 0.431494 25.7757 0.59158 25.4069 0.973487L25.4071 0.976412Z" fill="#C99F62"/>
<path d="M25.0968 9.64345C24.7037 9.72151 24.358 9.95211 24.1359 10.2842C23.9141 10.6163 23.8344 11.0227 23.9141 11.4134C24.0539 12.1048 24.1246 12.8081 24.1254 13.5133C24.1256 15.8119 23.3672 18.0468 21.967 19.8755C20.5665 21.704 18.6014 23.0251 16.3729 23.6361C14.1448 24.2472 11.7766 24.1141 9.63137 23.2576C7.48618 22.4011 5.68335 20.8684 4.49898 18.8947C3.31444 16.9209 2.81402 14.615 3.07433 12.3311C3.33464 10.0474 4.34156 7.91147 5.94027 6.25129C7.53898 4.59143 9.64123 3.49884 11.9244 3.14141C14.2076 2.7842 16.5458 3.18159 18.5797 4.27311C19.0517 4.51062 19.6142 4.48488 20.0623 4.20531C20.5103 3.92594 20.7784 3.43356 20.7689 2.90765C20.7594 2.38174 20.4737 1.89943 20.0158 1.63618C17.4007 0.232023 14.3943 -0.280066 11.4588 0.17888C8.52274 0.637585 5.81943 2.04172 3.76314 4.17579C1.70695 6.30986 0.411919 9.05604 0.0768887 11.9924C-0.258341 14.9288 0.384757 17.8938 1.90746 20.432C3.43021 22.97 5.74838 24.941 8.50625 26.0426C11.2642 27.144 14.3093 27.3151 17.1743 26.5295C20.0394 25.744 22.5663 24.0452 24.3667 21.6939C26.1674 19.3423 27.1422 16.4685 27.1418 13.513C27.1411 12.6062 27.0502 11.7018 26.8703 10.8131C26.7903 10.4243 26.5587 10.0829 26.2262 9.86383C25.8939 9.64452 25.4875 9.56501 25.0963 9.64306L25.0968 9.64345Z" fill="#C99F62"/>
</g>
<defs>
<clipPath id="clip0_142_21">
<rect width="28" height="27" fill="white"/>
</clipPath>
</defs>
</svg>
