<svg width="36" height="36" viewBox="0 0 36 36" fill="none" xmlns="http://www.w3.org/2000/svg">
<path fill-rule="evenodd" clip-rule="evenodd" d="M36 0H0V36H36V0ZM18 7.5C15.1475 7.5 14.7914 7.51312 13.6714 7.563C12.5531 7.6155 11.7919 7.79138 11.1225 8.05125C10.4321 8.319 9.84587 8.67863 9.26225 9.26225C8.67863 9.84587 8.31812 10.4312 8.05125 11.1225C7.79138 11.7919 7.61462 12.5531 7.563 13.6714C7.5105 14.7914 7.5 15.1475 7.5 18C7.5 20.8525 7.51312 21.2086 7.563 22.3286C7.6155 23.446 7.79138 24.2081 8.05125 24.8775C8.319 25.567 8.67863 26.1541 9.26225 26.7377C9.84587 27.3205 10.4312 27.6819 11.1225 27.9487C11.7927 28.2078 12.554 28.3854 13.6714 28.437C14.7914 28.4895 15.1475 28.5 18 28.5C20.8525 28.5 21.2086 28.4869 22.3286 28.437C23.446 28.3845 24.2081 28.2078 24.8775 27.9487C25.567 27.681 26.1541 27.3205 26.7377 26.7377C27.3205 26.1541 27.6819 25.5696 27.9487 24.8775C28.2078 24.2081 28.3854 23.446 28.437 22.3286C28.4895 21.2086 28.5 20.8525 28.5 18C28.5 15.1475 28.4869 14.7914 28.437 13.6714C28.3845 12.554 28.2078 11.791 27.9487 11.1225C27.681 10.4321 27.3205 9.84587 26.7377 9.26225C26.1541 8.67863 25.5696 8.31812 24.8775 8.05125C24.2081 7.79138 23.446 7.61462 22.3286 7.563C21.2086 7.5105 20.8525 7.5 18 7.5ZM22.2437 9.45212C21.1401 9.40414 20.8046 9.39008 18.0243 9.39C18.0088 9.39 17.9931 9.38543 17.9803 9.37687C17.9675 9.36832 17.9518 9.36375 17.9364 9.36375C15.1935 9.36382 14.8321 9.37659 13.7596 9.41446H13.7595L13.709 9.41625C12.6853 9.46875 12.1331 9.63937 11.7656 9.78463C11.2677 9.9675 10.9256 10.2037 10.559 10.5704C10.1906 10.9388 9.95525 11.28 9.7715 11.7787C9.62712 12.1462 9.45737 12.7098 9.404 13.7335L9.40175 13.7972C9.36409 14.8632 9.35063 15.2443 9.35063 17.9869C9.35063 20.7321 9.36413 21.1098 9.4019 22.1665L9.404 22.2254C9.45737 23.2491 9.62712 23.8135 9.7715 24.181C9.95525 24.6675 10.1906 25.0219 10.559 25.3885C10.9256 25.756 11.2677 25.9791 11.7656 26.1751C12.1331 26.3195 12.6975 26.4901 13.7221 26.5435C14.836 26.5951 15.1641 26.6082 17.9737 26.6082C20.7825 26.6082 21.1106 26.5969 22.2254 26.547C23.2491 26.5006 23.8135 26.3291 24.181 26.1856C24.6675 25.9958 25.0219 25.7682 25.3885 25.4016C25.756 25.0324 25.9791 24.6841 26.1751 24.1924C26.3195 23.8231 26.4901 23.2675 26.5435 22.2437C26.5951 21.1369 26.6082 20.8035 26.6082 18C26.6082 15.1965 26.5969 14.864 26.547 13.7563C26.5006 12.7325 26.3291 12.1769 26.1856 11.8076C25.9958 11.3159 25.7682 10.9668 25.4016 10.5992C25.0324 10.2326 24.6841 10.0051 24.1924 9.81525C23.8231 9.67 23.2675 9.50025 22.2437 9.45212ZM18 12.6082C15.0206 12.6082 12.6082 15.0232 12.6082 18C12.6082 20.9794 15.0232 23.3918 18 23.3918C20.9794 23.3918 23.3918 20.9767 23.3918 18C23.3918 15.0206 20.9767 12.6082 18 12.6082ZM14.5 18C14.5 19.9338 16.0662 21.5 18 21.5C19.9338 21.5 21.5 19.9338 21.5 18C21.5 16.0662 19.9338 14.5 18 14.5C16.0662 14.5 14.5 16.0662 14.5 18ZM23.6052 13.6556C24.3 13.6556 24.8652 13.0912 24.8652 12.3956C24.8652 11.7009 24.2991 11.1356 23.6052 11.1365C22.9105 11.1365 22.3452 11.7009 22.3452 12.3956C22.3452 13.0904 22.9096 13.6556 23.6052 13.6556Z" fill="#C99F62"/>
</svg>
