<svg width="36" height="36" viewBox="0 0 36 36" fill="none" xmlns="http://www.w3.org/2000/svg">
<rect width="36" height="36" rx="18" fill="#C99F62"/>
<path d="M18 6C14.74 6 14.333 6.015 13.053 6.072C11.775 6.132 10.905 6.333 10.14 6.63C9.351 6.936 8.681 7.347 8.014 8.014C7.347 8.681 6.935 9.35 6.63 10.14C6.333 10.905 6.131 11.775 6.072 13.053C6.012 14.333 6 14.74 6 18C6 21.26 6.015 21.667 6.072 22.947C6.132 24.224 6.333 25.095 6.63 25.86C6.936 26.648 7.347 27.319 8.014 27.986C8.681 28.652 9.35 29.065 10.14 29.37C10.906 29.666 11.776 29.869 13.053 29.928C14.333 29.988 14.74 30 18 30C21.26 30 21.667 29.985 22.947 29.928C24.224 29.868 25.095 29.666 25.86 29.37C26.648 29.064 27.319 28.652 27.986 27.986C28.652 27.319 29.065 26.651 29.37 25.86C29.666 25.095 29.869 24.224 29.928 22.947C29.988 21.667 30 21.26 30 18C30 14.74 29.985 14.333 29.928 13.053C29.868 11.776 29.666 10.904 29.37 10.14C29.064 9.351 28.652 8.681 27.986 8.014C27.319 7.347 26.651 6.935 25.86 6.63C25.095 6.333 24.224 6.131 22.947 6.072C21.667 6.012 21.26 6 18 6ZM18 8.16C21.203 8.16 21.585 8.176 22.85 8.231C24.02 8.286 24.655 8.48 25.077 8.646C25.639 8.863 26.037 9.123 26.459 9.542C26.878 9.962 27.138 10.361 27.355 10.923C27.519 11.345 27.715 11.98 27.768 13.15C27.825 14.416 27.838 14.796 27.838 18C27.838 21.204 27.823 21.585 27.764 22.85C27.703 24.02 27.508 24.655 27.343 25.077C27.119 25.639 26.864 26.037 26.444 26.459C26.025 26.878 25.62 27.138 25.064 27.355C24.644 27.519 23.999 27.715 22.829 27.768C21.555 27.825 21.18 27.838 17.97 27.838C14.759 27.838 14.384 27.823 13.111 27.764C11.94 27.703 11.295 27.508 10.875 27.343C10.306 27.119 9.915 26.864 9.496 26.444C9.075 26.025 8.806 25.62 8.596 25.064C8.431 24.644 8.237 23.999 8.176 22.829C8.131 21.569 8.115 21.18 8.115 17.985C8.115 14.789 8.131 14.399 8.176 13.124C8.237 11.954 8.431 11.31 8.596 10.89C8.806 10.32 9.075 9.93 9.496 9.509C9.915 9.09 10.306 8.82 10.875 8.611C11.295 8.445 11.926 8.25 13.096 8.19C14.371 8.145 14.746 8.13 17.955 8.13L18 8.16V8.16ZM18 11.838C14.595 11.838 11.838 14.598 11.838 18C11.838 21.405 14.598 24.162 18 24.162C21.405 24.162 24.162 21.402 24.162 18C24.162 14.595 21.402 11.838 18 11.838ZM18 22C15.79 22 14 20.21 14 18C14 15.79 15.79 14 18 14C20.21 14 22 15.79 22 18C22 20.21 20.21 22 18 22ZM25.846 11.595C25.846 12.39 25.2 13.035 24.406 13.035C23.611 13.035 22.966 12.389 22.966 11.595C22.966 10.801 23.612 10.156 24.406 10.156C25.199 10.155 25.846 10.801 25.846 11.595Z" fill="#241512"/>
</svg>
