<svg width="100" height="100" viewBox="0 0 100 100" fill="none" xmlns="http://www.w3.org/2000/svg">
<path d="M72.2404 19.5529L49.4704 16.0496C48.2706 15.8626 47.0636 16.2097 46.144 16.9994C45.2271 17.7862 44.7008 18.9329 44.7008 20.1428L44.7003 62.3156C42.5006 60.3391 39.6037 59.1259 36.4201 59.1259C29.5703 59.1259 24 64.6956 24 71.5461C24 78.3959 29.5697 83.9662 36.4201 83.9662C43.27 83.9662 48.8403 78.3965 48.8403 71.5461V34.6289L70.9803 38.0358C72.1801 38.2194 73.3904 37.8723 74.3067 37.086C75.2236 36.2958 75.7498 35.1524 75.7498 33.9426V23.6423C75.7504 21.5854 74.2739 19.8654 72.2404 19.5519L72.2404 19.5529ZM36.4247 79.8257C31.8583 79.8257 28.1446 76.1126 28.1446 71.5456C28.1446 66.9792 31.8577 63.2654 36.4247 63.2654C40.9911 63.2654 44.7048 66.9786 44.7048 71.5456C44.7043 76.1126 40.9877 79.8257 36.4247 79.8257ZM71.6104 33.9457L48.8433 30.4424V20.1422L71.6133 23.6454L71.6104 33.9457Z" fill="#C99F62"/>
</svg>
