<svg width="12" height="12" viewBox="0 0 12 12" fill="none" xmlns="http://www.w3.org/2000/svg">
<path d="M10.2342 1.75708C9.10984 0.631959 7.58488 0 5.995 0C4.40504 0 2.88023 0.632204 1.75581 1.75745C0.631581 2.88269 0 4.40875 0 6C0 7.59126 0.631581 9.11725 1.75581 10.2426C2.88017 11.3678 4.40501 12 5.995 12C7.58497 12 9.11009 11.368 10.2342 10.2429C10.982 9.5002 11.5205 8.57265 11.7944 7.55455C12.0685 6.53633 12.0685 5.4637 11.7944 4.44557C11.5205 3.42747 10.982 2.49989 10.2342 1.7572V1.75708ZM4.17043 7.82565C4.66547 8.2883 5.31748 8.54565 5.99473 8.54565C6.67198 8.54565 7.32399 8.28832 7.81903 7.82565C7.98499 7.66279 8.25108 7.6641 8.41549 7.82864C8.5799 7.99318 8.58122 8.25948 8.41848 8.42558C7.77506 9.06783 6.90343 9.4285 5.99475 9.4285C5.08607 9.4285 4.21443 9.06786 3.57102 8.42558C2.9331 7.77972 2.57535 6.90813 2.57535 5.99993C2.57535 5.09172 2.93307 4.2201 3.57102 3.57428C4.21443 2.93203 5.08607 2.57136 5.99475 2.57136C6.90343 2.57136 7.77506 2.932 8.41848 3.57428C8.58122 3.74037 8.5799 4.00667 8.41549 4.17121C8.25108 4.33575 7.985 4.33707 7.81903 4.1742C7.32399 3.71156 6.67198 3.4542 5.99473 3.4542C5.31748 3.4542 4.66547 3.71154 4.17043 4.1742C3.69286 4.66173 3.42534 5.31726 3.42534 5.99995C3.42534 6.68263 3.69286 7.33816 4.17043 7.82569V7.82565Z" fill="#C39F6B"/>
</svg>
