<svg width="100" height="100" viewBox="0 0 100 100" fill="none" xmlns="http://www.w3.org/2000/svg">
<path d="M41.5883 64.8397C45.4282 64.1996 47.8283 61.9597 48.4683 60.1997L33.4283 62.76C34.8686 64.52 38.2286 65.4799 41.5885 64.8399L41.5883 64.8397Z" fill="#C99F62"/>
<path d="M60.9484 31.0796C60.1481 27.0796 55.8284 24.6795 51.8284 26.7599C40.4684 32.8398 29.4284 34.4402 18.8684 32.8398C14.5487 32.1997 11.0285 35.8799 11.8282 40.0395L14.2284 53.9597C17.4281 71.7197 34.2284 80.8396 41.4284 83.8797C42.2286 84.1994 43.0282 84.3596 43.8285 84.3596C45.4284 84.3596 46.8687 83.7195 48.1482 82.5996C50.0684 80.6794 52.9485 77.7993 55.6684 73.9596C67.6684 57.1596 63.6684 46.2796 60.9485 31.0796L60.9484 31.0796ZM24.7884 52.1996C24.3085 52.9999 23.1885 53.1595 22.5484 52.5194C21.9083 52.0395 21.5885 51.0797 22.0685 50.2794C24.6287 46.5991 29.9083 45.6394 33.5886 48.1995C34.3888 48.6795 34.5484 49.6393 34.0685 50.4396C33.5886 51.0796 32.4687 51.3994 31.8285 50.9195C29.5885 49.3196 26.3882 49.7995 24.7884 52.1996V52.1996ZM42.0684 68.0396C35.5081 69.1596 30.3881 66.1195 29.5885 61.9598C29.4284 61.1596 30.0684 60.1998 30.8686 60.0396L49.7486 56.6797C50.5489 56.5195 51.5086 57.1596 51.6688 57.9598C52.4685 62.4396 48.1481 66.9196 42.0684 68.0396L42.0684 68.0396ZM45.9082 48.3596C45.4283 49.1599 44.3084 49.1599 43.6682 48.6794C42.868 48.1995 42.7084 47.2397 43.1883 46.4394C45.9082 42.5996 51.0282 41.7994 54.7085 44.3596C55.5087 44.8395 55.6683 45.7993 55.0282 46.5996C54.5483 47.2396 53.5885 47.5594 52.7882 47.0795C50.7084 45.6398 47.5081 46.1196 45.9082 48.3596L45.9082 48.3596Z" fill="#C99F62"/>
<path d="M81.2683 22.4396C69.9083 24.3597 59.0283 22.2794 48.1483 16.3597C44.4681 14.2798 39.8286 16.5199 39.0283 20.6794L37.5886 28.6794C42.0685 27.5594 46.2286 25.9596 50.2286 23.7196C51.8285 23.0795 53.2682 22.7597 54.8686 22.7597C59.3485 22.7597 63.3485 25.9594 64.1488 30.5996C66.5489 44.6794 67.1889 46.9196 67.1889 49.4796L69.2688 49.7993C70.069 49.9595 70.7085 50.7592 70.5489 51.7195C70.2291 53.7993 68.7889 55.5593 66.709 56.6793C65.7492 62.5995 63.5093 67.8791 60.3089 72.8393C68.1488 69.1591 83.0289 60.1993 85.9089 43.5593L88.309 29.6392C89.1087 25.3195 85.4285 21.7993 81.2683 22.4395L81.2683 22.4396ZM77.5886 42.2796C76.9486 42.7595 75.8286 42.5993 75.3486 41.7996C73.7488 39.5596 70.5483 38.9196 68.3085 40.5195C67.6684 40.9994 66.5485 40.8393 66.0685 40.0396C65.5886 39.2394 65.7487 38.2796 66.5484 37.7996C70.2287 35.2393 75.5083 36.0396 78.0685 39.8795C78.5485 40.8398 78.3883 41.7996 77.5886 42.2796V42.2796Z" fill="#C99F62"/>
</svg>
