<svg width="100" height="100" viewBox="0 0 100 100" fill="none" xmlns="http://www.w3.org/2000/svg">
<path d="M68.331 32.7657V25.7501H72.1123C73.1435 25.7501 73.956 24.922 73.956 23.8907V13.9063C73.956 12.875 73.1435 12 72.1123 12H27.9865C26.9553 12 26.1428 12.875 26.1428 13.9063V23.8907C26.1428 24.922 26.9553 25.7501 27.9865 25.7501H31.7678V32.7657C31.7678 37.3439 34.0178 41.5783 37.8304 44.0939L46.6741 49.9689L37.8304 55.8439C34.0178 58.3751 31.7678 62.6094 31.7678 67.172V74.1876H27.9865C26.9553 74.1876 26.1428 75.0157 26.1428 76.047V86.0314C26.1428 87.0627 26.9553 87.9377 27.9865 87.9377H72.1123C73.1435 87.9377 73.956 87.0627 73.956 86.0314V76.047C73.956 75.0157 73.1435 74.1876 72.1123 74.1876H68.331V67.172C68.331 62.5939 66.081 58.3594 62.2684 55.8439L53.4247 49.9689L62.2684 44.0939C66.081 41.5626 68.331 37.3283 68.331 32.7657ZM29.8938 15.75H70.2067V22H29.8938V15.75ZM70.2067 84.1871H29.8938V77.9371H70.2067V84.1871ZM60.2067 58.9686C62.9723 60.7967 64.5817 63.8749 64.5817 67.1717V74.1873H35.5188V67.1717C35.5188 63.8591 37.1438 60.7967 39.8938 58.9686L50.0501 52.2186L60.2067 58.9686ZM60.2067 40.9686L50.0348 47.7186L39.8943 40.9686C37.1287 39.1404 35.5193 36.0623 35.5193 32.7654V25.7499H64.5821V32.7654C64.5821 36.0623 62.9571 39.1404 60.2071 40.9686H60.2067Z" fill="#C99F62"/>
</svg>
